<svg width="199" height="26" viewBox="0 0 199 26" fill="none" xmlns="http://www.w3.org/2000/svg">
<g clip-path="url(#clip0_275_634)">
<path d="M9.12305 4.72949H6.73535L13.335 20.6758L11.0771 25.9736L0 0H7.69727L9.12305 4.72949ZM13.3584 20.6211L10.1934 7.49512L14.082 8.40332L14.377 0H22.1494L13.3584 20.6211Z" fill="black"/>
<path d="M25.1494 13.0011C25.1494 11.2901 25.4742 9.66945 26.1286 8.14383C26.783 6.61822 27.6954 5.26371 28.8609 4.08979C30.0312 2.91588 31.383 1.98911 32.9211 1.31898C34.4544 0.644097 36.0976 0.311409 37.8411 0.311409C39.5846 0.311409 41.2277 0.64885 42.7754 1.31898C44.323 1.99386 45.6892 2.91588 46.869 4.08979C48.0488 5.26371 48.9707 6.61822 49.6395 8.14383C50.3034 9.6742 50.6378 11.2901 50.6378 13.0011C50.6378 14.712 50.3034 16.3992 49.6395 17.9296C48.9755 19.46 48.0536 20.805 46.869 21.9694C45.6892 23.1338 44.323 24.0416 42.7754 24.6879C41.2277 25.339 39.5798 25.6622 37.8411 25.6622C36.1023 25.6622 34.4592 25.339 32.9211 24.6879C31.383 24.0368 30.0312 23.1433 28.8609 22.0027C27.6906 20.862 26.7783 19.5218 26.1286 17.9819C25.479 16.442 25.1494 14.7833 25.1494 13.0011ZM28.8609 13.0343C28.8609 14.7215 29.2621 16.2614 30.0646 17.654C30.8671 19.0465 31.9562 20.1539 33.3319 20.9713C34.7076 21.7935 36.2457 22.2023 37.9414 22.2023C39.6371 22.2023 41.1274 21.7935 42.4792 20.9713C43.831 20.1491 44.9106 19.0417 45.713 17.654C46.5155 16.2614 46.9168 14.712 46.9168 13.0011C46.9168 11.2901 46.5107 9.73123 45.6939 8.32919C44.8819 6.92715 43.7928 5.81502 42.4267 4.9928C41.0605 4.17059 39.5416 3.76186 37.8697 3.76186C36.1979 3.76186 34.6407 4.18009 33.2793 5.01181C31.9132 5.84353 30.8384 6.96041 30.0455 8.36721C29.2526 9.76925 28.8609 11.3281 28.8609 13.0391V13.0343Z" fill="black"/>
<path d="M53.6377 0.582306H57.2154V21.9361H69.7351V25.3913H53.6377V0.582306Z" fill="black"/>
<path d="M72.7354 0.582306H89.3487V4.03751H82.7473V25.3913H79.1361V4.03751H72.7401V0.582306H72.7354Z" fill="black"/>
<path d="M107.271 5.19955C106.402 4.74329 105.461 4.35357 104.453 4.03514C103.445 3.71671 102.47 3.55512 101.529 3.55512C100.221 3.55512 99.1888 3.84503 98.4341 4.42961C97.6794 5.01419 97.2973 5.8174 97.2973 6.84398C97.2973 7.55212 97.5504 8.16522 98.052 8.69277C98.5583 9.21556 99.208 9.67182 100.015 10.0615C100.818 10.4513 101.668 10.8125 102.561 11.1547C103.593 11.5206 104.591 11.9816 105.551 12.5424C106.516 13.1033 107.304 13.8494 107.925 14.7857C108.546 15.722 108.857 16.9767 108.857 18.5498C108.857 19.8521 108.522 21.0355 107.859 22.1096C107.195 23.1837 106.249 24.0297 105.021 24.657C103.794 25.2844 102.322 25.5981 100.603 25.5981C98.9978 25.5981 97.4788 25.3414 96.0458 24.8281C94.6128 24.3148 93.3804 23.7065 92.3486 22.9983L93.9632 20.1562C94.7656 20.7741 95.7496 21.3064 96.9199 21.7626C98.0902 22.2189 99.2032 22.447 100.254 22.447C101.033 22.447 101.787 22.314 102.523 22.0526C103.259 21.7912 103.87 21.3729 104.362 20.8026C104.854 20.2323 105.102 19.4814 105.102 18.5451C105.102 17.7704 104.883 17.1098 104.448 16.5585C104.013 16.0119 103.445 15.5414 102.747 15.1564C102.05 14.7667 101.295 14.4245 100.498 14.1298C99.7191 13.8352 98.9213 13.5072 98.1093 13.1555C97.2925 12.8038 96.5473 12.3618 95.8738 11.839C95.1955 11.3162 94.6462 10.6699 94.2211 9.9047C93.796 9.13952 93.5858 8.21275 93.5858 7.11488C93.5858 5.76987 93.9011 4.60546 94.5316 3.62641C95.1621 2.64736 96.041 1.86791 97.1635 1.29759C98.2861 0.727271 99.571 0.418346 101.014 0.375572C102.666 0.375572 104.109 0.575185 105.346 0.97441C106.583 1.37364 107.672 1.85841 108.613 2.42873L107.271 5.19955Z" fill="black"/>
<path d="M111.857 0.582306H128.47V4.03751H121.869V25.3913H118.258V4.03751H111.862V0.582306H111.857Z" fill="black"/>
<path d="M131.47 25.9046L142.442 0.0690231H142.648L153.62 25.9046H149.459L142.132 7.7256H142.609L135.053 25.9046H131.475H131.47Z" fill="#537FE7"/>
<path d="M176.529 23.5053C176.137 23.7572 175.583 24.0567 174.862 24.4131C174.141 24.7696 173.29 25.069 172.316 25.3209C171.341 25.5728 170.281 25.6868 169.135 25.6631C167.186 25.6393 165.442 25.2971 163.909 24.6365C162.371 23.9759 161.062 23.0681 159.973 21.918C158.884 20.7678 158.053 19.4418 157.479 17.9495C156.906 16.4571 156.62 14.865 156.62 13.1778C156.62 11.3052 156.925 9.58949 157.532 8.02585C158.139 6.46222 158.994 5.10771 160.092 3.9528C161.191 2.80265 162.495 1.9044 163.995 1.26754C165.495 0.630678 167.143 0.307495 168.929 0.307495C170.443 0.307495 171.819 0.511861 173.056 0.925344C174.293 1.33407 175.339 1.80459 176.185 2.32739L174.742 5.68278C174.078 5.22652 173.257 4.79403 172.282 4.38055C171.308 3.96706 170.224 3.7627 169.034 3.7627C167.477 3.7627 166.034 4.17143 164.716 4.99364C163.398 5.81586 162.342 6.92323 161.554 8.31102C160.766 9.6988 160.369 11.2672 160.369 12.9972C160.369 14.7271 160.732 16.3288 161.454 17.7213C162.175 19.1139 163.202 20.207 164.53 21.0054C165.858 21.8039 167.42 22.2031 169.206 22.2031C170.491 22.2031 171.618 22.0083 172.593 21.6233C173.567 21.2336 174.365 20.7916 174.981 20.2878L176.529 23.5053Z" fill="black"/>
<path d="M183.111 10.5392L183.073 11.599L183.589 11.0144L193.391 0.582306H198.067L187.749 11.3281L198.55 25.3913H193.973L185.098 13.5857L183.14 15.4677L183.173 25.3913H179.529L179.768 8.16284L183.111 6.73703V10.5392Z" fill="black"/>
<path d="M182.99 6.90832L179.62 9.19432V4.62231" fill="#537FE7"/>
<path d="M140.832 22.0005L138.506 18.0686L143.316 18.1555" fill="black"/>
</g>
<defs>
<clipPath id="clip0_275_634">
<rect width="198.549" height="25.9736" fill="white"/>
</clipPath>
</defs>
</svg>
