<svg width="32" height="32" viewBox="0 0 32 32" fill="none" xmlns="http://www.w3.org/2000/svg">
<g clip-path="url(#clip0_74_608)">
<path d="M5 19.5H19C19.663 19.5 20.2987 19.7636 20.7676 20.2324C21.2364 20.7013 21.5 21.337 21.5 22V22.7002C21.4999 25.1279 20.4054 26.8633 18.6396 27.9609V27.9619C16.9029 29.0446 14.5469 29.5 12 29.5C9.46779 29.5 7.11148 29.0422 5.37207 27.9609C3.60462 26.8623 2.50006 25.1299 2.5 22.7002V22C2.5 21.337 2.76358 20.7013 3.23242 20.2324C3.70126 19.7636 4.33696 19.5 5 19.5Z" fill="url(#paint0_radial_74_608)" stroke="white"/>
<path d="M5 19.5H19C19.663 19.5 20.2987 19.7636 20.7676 20.2324C21.2364 20.7013 21.5 21.337 21.5 22V22.7002C21.4999 25.1279 20.4054 26.8633 18.6396 27.9609V27.9619C16.9029 29.0446 14.5469 29.5 12 29.5C9.46779 29.5 7.11148 29.0422 5.37207 27.9609C3.60462 26.8623 2.50006 25.1299 2.5 22.7002V22C2.5 21.337 2.76358 20.7013 3.23242 20.2324C3.70126 19.7636 4.33696 19.5 5 19.5Z" fill="url(#paint1_linear_74_608)" stroke="white"/>
<path d="M5 19.5H19C19.663 19.5 20.2987 19.7636 20.7676 20.2324C21.2364 20.7013 21.5 21.337 21.5 22V22.7002C21.4999 25.1279 20.4054 26.8633 18.6396 27.9609V27.9619C16.9029 29.0446 14.5469 29.5 12 29.5C9.46779 29.5 7.11148 29.0422 5.37207 27.9609C3.60462 26.8623 2.50006 25.1299 2.5 22.7002V22C2.5 21.337 2.76358 20.7013 3.23242 20.2324C3.70126 19.7636 4.33696 19.5 5 19.5Z" fill="url(#paint2_radial_74_608)" stroke="white"/>
<path d="M5 19.5H19C19.663 19.5 20.2987 19.7636 20.7676 20.2324C21.2364 20.7013 21.5 21.337 21.5 22V22.7002C21.4999 25.1279 20.4054 26.8633 18.6396 27.9609V27.9619C16.9029 29.0446 14.5469 29.5 12 29.5C9.46779 29.5 7.11148 29.0422 5.37207 27.9609C3.60462 26.8623 2.50006 25.1299 2.5 22.7002V22C2.5 21.337 2.76358 20.7013 3.23242 20.2324C3.70126 19.7636 4.33696 19.5 5 19.5Z" fill="url(#paint3_radial_74_608)" stroke="white"/>
<path d="M5 19.5H19C19.663 19.5 20.2987 19.7636 20.7676 20.2324C21.2364 20.7013 21.5 21.337 21.5 22V22.7002C21.4999 25.1279 20.4054 26.8633 18.6396 27.9609V27.9619C16.9029 29.0446 14.5469 29.5 12 29.5C9.46779 29.5 7.11148 29.0422 5.37207 27.9609C3.60462 26.8623 2.50006 25.1299 2.5 22.7002V22C2.5 21.337 2.76358 20.7013 3.23242 20.2324C3.70126 19.7636 4.33696 19.5 5 19.5Z" fill="#537FE7" stroke="white"/>
<path d="M12 2.5C12.1326 2.5 12.2597 2.55272 12.3535 2.64648C12.4473 2.74025 12.5 2.86739 12.5 3V4.5H11.5V3C11.5 2.86739 11.5527 2.74025 11.6465 2.64648C11.7169 2.57608 11.8061 2.52894 11.9023 2.50977L12 2.5Z" fill="#537FE7" stroke="white"/>
<path d="M7 4.5H17C17.663 4.5 18.2987 4.76358 18.7676 5.23242C19.2364 5.70126 19.5 6.33696 19.5 7V13C19.5 13.663 19.2364 14.2987 18.7676 14.7676C18.2987 15.2364 17.663 15.5 17 15.5H7C6.33696 15.5 5.70126 15.2364 5.23242 14.7676C4.76358 14.2987 4.5 13.663 4.5 13V7L4.5127 6.75293C4.56952 6.18063 4.82219 5.64265 5.23242 5.23242C5.70126 4.76358 6.33696 4.5 7 4.5Z" fill="#537FE7" stroke="white"/>
<path d="M15 9C15.2652 9 15.5195 9.10543 15.707 9.29297C15.8946 9.48051 16 9.73478 16 10C16 10.2652 15.8946 10.5195 15.707 10.707C15.5195 10.8946 15.2652 11 15 11C14.7348 11 14.4805 10.8946 14.293 10.707C14.1054 10.5195 14 10.2652 14 10L14.0049 9.90137C14.0276 9.67237 14.1288 9.45711 14.293 9.29297C14.4571 9.12883 14.6724 9.02757 14.9014 9.00488L15 9Z" fill="url(#paint4_linear_74_608)" stroke="white"/>
<path d="M9 9C9.26522 9 9.51949 9.10543 9.70703 9.29297C9.89457 9.4805 10 9.73478 10 10C10 10.2652 9.89457 10.5195 9.70703 10.707C9.5195 10.8946 9.26522 11 9 11C8.73478 11 8.4805 10.8946 8.29297 10.707C8.10543 10.5195 8 10.2652 8 10C8 9.73478 8.10543 9.48051 8.29297 9.29297C8.45711 9.12883 8.67237 9.02757 8.90137 9.00488L9 9Z" fill="url(#paint5_linear_74_608)" stroke="white"/>
<path d="M24.9697 22.5C24.9913 22.5 25.0127 22.5071 25.0303 22.5195C25.039 22.5257 25.0473 22.5326 25.0537 22.541L25.0684 22.5693L25.5605 24.0889L25.5625 24.0928C25.7427 24.6314 26.0452 25.1212 26.4473 25.5225C26.8493 25.9237 27.3399 26.2251 27.8789 26.4043L27.8818 26.4062L29.4121 26.9014L29.4248 26.9062L29.4346 26.9082C29.4532 26.9156 29.4698 26.9279 29.4814 26.9443C29.4937 26.9618 29.4999 26.9826 29.5 27.0039C29.5 27.0254 29.4939 27.0469 29.4814 27.0645C29.469 27.082 29.451 27.0944 29.4307 27.1016L27.9121 27.5947L27.9082 27.5957C27.3694 27.7754 26.8792 28.0779 26.4775 28.4795C26.0759 28.8811 25.7735 29.3713 25.5938 29.9102L25.5928 29.9131L25.0986 31.4307C25.0915 31.451 25.0781 31.469 25.0605 31.4814C25.043 31.4939 25.0216 31.5 25 31.5C24.9787 31.5 24.9579 31.4937 24.9404 31.4814C24.9316 31.4752 24.9234 31.4675 24.917 31.459L24.9023 31.4307L24.4102 29.9141L24.4092 29.9111L24.3359 29.7109C24.1526 29.2494 23.8772 28.8291 23.5254 28.4766C23.1233 28.0737 22.6327 27.7699 22.0928 27.5898L22.0889 27.5889L20.5674 27.0928C20.5482 27.0855 20.5315 27.0733 20.5195 27.0566C20.5071 27.0391 20.5 27.0176 20.5 26.9961C20.5 26.9746 20.5072 26.954 20.5195 26.9365C20.5319 26.919 20.5491 26.9056 20.5693 26.8984L20.5684 26.8975L22.0889 26.4062L22.0977 26.4023C22.6294 26.218 23.1119 25.9136 23.5068 25.5127C23.9017 25.1118 24.1988 24.6252 24.375 24.0908V24.0898L24.8721 22.5693C24.8792 22.5491 24.8927 22.5319 24.9102 22.5195C24.9276 22.5072 24.9483 22.5001 24.9697 22.5Z" stroke="white"/>
<mask id="path-11-inside-1_74_608" fill="white">
<path d="M21.7559 10.564L22.4519 12.706C22.6678 13.3575 23.033 13.9495 23.5185 14.4346C24.004 14.9198 24.5962 15.2846 25.2479 15.5L27.3919 16.196L27.4339 16.208C27.5991 16.2661 27.7422 16.3741 27.8434 16.5171C27.9446 16.66 27.999 16.8308 27.999 17.006C27.999 17.1811 27.9446 17.352 27.8434 17.4949C27.7422 17.6378 27.5991 17.7458 27.4339 17.804L25.2919 18.5C24.6399 18.7151 24.0472 19.0798 23.5614 19.565C23.0755 20.0501 22.71 20.6423 22.4939 21.294L21.7979 23.434C21.7398 23.5992 21.6318 23.7423 21.4888 23.8435C21.3459 23.9447 21.1751 23.9991 20.9999 23.9991C20.8248 23.9991 20.6539 23.9447 20.511 23.8435C20.3681 23.7423 20.2601 23.5992 20.2019 23.434L19.5059 21.294C19.2558 20.5363 18.8044 19.8609 18.1999 19.34C17.7628 18.9605 17.2551 18.671 16.7059 18.488L14.5619 17.792C14.3967 17.7338 14.2536 17.6258 14.1524 17.4829C14.0512 17.34 13.9968 17.1691 13.9968 16.994C13.9968 16.8188 14.0512 16.648 14.1524 16.5051C14.2536 16.3621 14.3967 16.2541 14.5619 16.196L16.7059 15.5C17.3498 15.2791 17.9337 14.9117 18.4115 14.4269C18.8894 13.9421 19.2483 13.353 19.4599 12.706L20.1559 10.566C20.2136 10.4001 20.3216 10.2563 20.4648 10.1545C20.6079 10.0527 20.7793 9.99805 20.9549 9.99805C21.1306 9.99805 21.3019 10.0527 21.4451 10.1545C21.5882 10.2563 21.6962 10.4001 21.7539 10.566"/>
</mask>
<path d="M22.4519 12.706L21.5008 13.015L21.5027 13.0205L22.4519 12.706ZM25.2479 15.5L24.9341 16.4495L24.9391 16.4511L25.2479 15.5ZM27.3919 16.196L27.0831 17.1471L27.1001 17.1526L27.1172 17.1575L27.3919 16.196ZM27.4339 16.208L27.766 15.2647L27.7376 15.2547L27.7087 15.2465L27.4339 16.208ZM27.4339 17.804L27.7429 18.755L27.7545 18.7513L27.766 18.7473L27.4339 17.804ZM25.2919 18.5L24.9829 17.5489L24.9786 17.5503L25.2919 18.5ZM22.4939 21.294L21.5447 20.9793L21.5429 20.9847L22.4939 21.294ZM21.7979 23.434L22.7412 23.766L22.7452 23.7547L22.7489 23.7433L21.7979 23.434ZM20.2019 23.434L19.2509 23.7433L19.2547 23.7547L19.2587 23.766L20.2019 23.434ZM19.5059 21.294L20.4569 20.9847L20.4555 20.9805L19.5059 21.294ZM18.1999 19.34L17.5443 20.0951L17.5471 20.0975L18.1999 19.34ZM16.7059 18.488L17.022 17.5392L17.0147 17.5369L16.7059 18.488ZM14.5619 17.792L14.2299 18.7353L14.2415 18.7393L14.2531 18.7431L14.5619 17.792ZM13.9968 16.994H14.9968H13.9968ZM14.5619 16.196L14.2531 15.2449L14.2415 15.2486L14.2299 15.2527L14.5619 16.196ZM16.7059 15.5L17.0147 16.4511L17.0226 16.4486L17.0305 16.4459L16.7059 15.5ZM19.4599 12.706L20.4104 13.0169L20.4109 13.0153L19.4599 12.706ZM20.1559 10.566L19.2115 10.2373L19.2081 10.247L19.2049 10.2567L20.1559 10.566ZM21.7559 10.564L20.8049 10.873L21.5009 13.015L22.4519 12.706L23.403 12.397L22.707 10.255L21.7559 10.564ZM22.4519 12.706L21.5027 13.0205C21.7676 13.8201 22.2158 14.5466 22.8117 15.142L23.5185 14.4346L24.2254 13.7273C23.8502 13.3524 23.568 12.8949 23.4012 12.3915L22.4519 12.706ZM23.5185 14.4346L22.8117 15.142C23.4075 15.7374 24.1343 16.1852 24.9341 16.4495L25.2479 15.5L25.5617 14.5505C25.0582 14.3841 24.6005 14.1022 24.2254 13.7273L23.5185 14.4346ZM25.2479 15.5L24.9391 16.4511L27.0831 17.1471L27.3919 16.196L27.7007 15.2449L25.5567 14.5489L25.2479 15.5ZM27.3919 16.196L27.1172 17.1575L27.1592 17.1695L27.4339 16.208L27.7087 15.2465L27.6667 15.2345L27.3919 16.196ZM27.4339 16.208L27.1019 17.1513C27.0718 17.1407 27.0457 17.121 27.0273 17.095L27.8434 16.5171L28.6595 15.9392C28.4387 15.6273 28.1265 15.3916 27.766 15.2647L27.4339 16.208ZM27.8434 16.5171L27.0273 17.095C27.0089 17.069 26.999 17.0379 26.999 17.006H27.999H28.999C28.999 16.6238 28.8804 16.2511 28.6595 15.9392L27.8434 16.5171ZM27.999 17.006H26.999C26.999 16.9741 27.0089 16.943 27.0273 16.917L27.8434 17.4949L28.6595 18.0728C28.8804 17.7609 28.999 17.3882 28.999 17.006H27.999ZM27.8434 17.4949L27.0273 16.917C27.0457 16.891 27.0718 16.8713 27.1019 16.8607L27.4339 17.804L27.766 18.7473C28.1265 18.6204 28.4387 18.3847 28.6595 18.0728L27.8434 17.4949ZM27.4339 17.804L27.1249 16.8529L24.9829 17.5489L25.2919 18.5L25.6009 19.451L27.7429 18.755L27.4339 17.804ZM25.2919 18.5L24.9786 17.5503C24.1784 17.8143 23.451 18.2619 22.8548 18.8574L23.5614 19.565L24.268 20.2726C24.6434 19.8977 25.1014 19.6159 25.6052 19.4496L25.2919 18.5ZM23.5614 19.565L22.8548 18.8574C22.2585 19.4528 21.8099 20.1795 21.5447 20.9793L22.4939 21.294L23.4431 21.6086C23.6101 21.105 23.8925 20.6475 24.268 20.2726L23.5614 19.565ZM22.4939 21.294L21.5429 20.9847L20.8469 23.1247L21.7979 23.434L22.7489 23.7433L23.4449 21.6033L22.4939 21.294ZM21.7979 23.434L20.8547 23.1019C20.8652 23.0719 20.8849 23.0458 20.9109 23.0274L21.4888 23.8435L22.0667 24.6596C22.3786 24.4387 22.6143 24.1265 22.7412 23.766L21.7979 23.434ZM21.4888 23.8435L20.9109 23.0274C20.9369 23.009 20.968 22.9991 20.9999 22.9991V23.9991V24.9991C21.3821 24.9991 21.7548 24.8805 22.0667 24.6596L21.4888 23.8435ZM20.9999 23.9991V22.9991C21.0318 22.9991 21.0629 23.009 21.0889 23.0274L20.511 23.8435L19.9331 24.6596C20.245 24.8805 20.6177 24.9991 20.9999 24.9991V23.9991ZM20.511 23.8435L21.0889 23.0274C21.1149 23.0458 21.1346 23.0719 21.1452 23.1019L20.2019 23.434L19.2587 23.766C19.3856 24.1265 19.6212 24.4387 19.9331 24.6596L20.511 23.8435ZM20.2019 23.434L21.1529 23.1247L20.4569 20.9847L19.5059 21.294L18.5549 21.6033L19.2509 23.7433L20.2019 23.434ZM19.5059 21.294L20.4555 20.9805C20.1486 20.0506 19.5945 19.2217 18.8527 18.5824L18.1999 19.34L17.5471 20.0975C18.0142 20.5 18.363 21.0219 18.5563 21.6074L19.5059 21.294ZM18.1999 19.34L18.8555 18.5849C18.3191 18.1191 17.696 17.7638 17.022 17.5393L16.7059 18.488L16.3899 19.4367C16.8142 19.5781 17.2065 19.8018 17.5443 20.0951L18.1999 19.34ZM16.7059 18.488L17.0147 17.5369L14.8707 16.8409L14.5619 17.792L14.2531 18.7431L16.3971 19.4391L16.7059 18.488ZM14.5619 17.792L14.894 16.8487C14.924 16.8593 14.9501 16.879 14.9685 16.905L14.1524 17.4829L13.3363 18.0608C13.5572 18.3727 13.8694 18.6084 14.2299 18.7353L14.5619 17.792ZM14.1524 17.4829L14.9685 16.905C14.9869 16.931 14.9968 16.9621 14.9968 16.994H13.9968H12.9968C12.9968 17.3762 13.1154 17.7489 13.3363 18.0608L14.1524 17.4829ZM13.9968 16.994H14.9968C14.9968 17.0259 14.9869 17.057 14.9685 17.083L14.1524 16.5051L13.3363 15.9272C13.1154 16.2391 12.9968 16.6118 12.9968 16.994H13.9968ZM14.1524 16.5051L14.9685 17.083C14.9501 17.109 14.924 17.1287 14.894 17.1393L14.5619 16.196L14.2299 15.2527C13.8694 15.3796 13.5572 15.6153 13.3363 15.9272L14.1524 16.5051ZM14.5619 16.196L14.8707 17.1471L17.0147 16.4511L16.7059 15.5L16.3971 14.5489L14.2531 15.2449L14.5619 16.196ZM16.7059 15.5L17.0305 16.4459C17.8207 16.1747 18.5372 15.7239 19.1237 15.1289L18.4115 14.4269L17.6994 13.7249C17.3301 14.0996 16.8789 14.3834 16.3814 14.5541L16.7059 15.5ZM18.4115 14.4269L19.1237 15.1289C19.7102 14.5339 20.1506 13.8109 20.4104 13.0169L19.4599 12.706L18.5095 12.3951C18.3459 12.8951 18.0686 13.3503 17.6994 13.7249L18.4115 14.4269ZM19.4599 12.706L20.4109 13.0153L21.1069 10.8753L20.1559 10.566L19.2049 10.2567L18.5089 12.3967L19.4599 12.706ZM20.1559 10.566L21.1004 10.8947C21.0898 10.9249 21.0702 10.951 21.0441 10.9696L20.4648 10.1545L19.8854 9.33943C19.573 9.5615 19.3374 9.87531 19.2115 10.2373L20.1559 10.566ZM20.4648 10.1545L21.0441 10.9696C21.0181 10.9881 20.9869 10.998 20.9549 10.998V9.99805V8.99805C20.5716 8.99805 20.1978 9.11736 19.8854 9.33943L20.4648 10.1545ZM20.9549 9.99805V10.998C20.9229 10.998 20.8918 10.9881 20.8657 10.9696L21.4451 10.1545L22.0244 9.33943C21.712 9.11736 21.3382 8.99805 20.9549 8.99805V9.99805ZM21.4451 10.1545L20.8657 10.9696C20.8396 10.951 20.82 10.9249 20.8095 10.8947L21.7539 10.566L22.6984 10.2373C22.5724 9.87531 22.3368 9.5615 22.0244 9.33943L21.4451 10.1545Z" fill="white" mask="url(#path-11-inside-1_74_608)"/>
</g>
<defs>
<radialGradient id="paint0_radial_74_608" cx="0" cy="0" r="1" gradientUnits="userSpaceOnUse" gradientTransform="translate(-2.616 15.614) rotate(32.84) scale(28.5536 47.472)">
<stop stop-color="#F08AF4"/>
<stop offset="0.0001" stop-color="#9C6CFE"/>
<stop offset="1" stop-color="#537FE7"/>
</radialGradient>
<linearGradient id="paint1_linear_74_608" x1="12" y1="17.69" x2="17.398" y2="36.028" gradientUnits="userSpaceOnUse">
<stop stop-color="#885EDB" stop-opacity="0"/>
<stop offset="1" stop-color="#E362F8"/>
</linearGradient>
<radialGradient id="paint2_radial_74_608" cx="0" cy="0" r="1" gradientUnits="userSpaceOnUse" gradientTransform="translate(21 22) rotate(-90) scale(5 2.5805)">
<stop stop-color="#4E44DB"/>
<stop offset="1" stop-color="#4E44DB" stop-opacity="0"/>
</radialGradient>
<radialGradient id="paint3_radial_74_608" cx="0" cy="0" r="1" gradientUnits="userSpaceOnUse" gradientTransform="translate(20 20) rotate(-135) scale(5.65685 4.22344)">
<stop stop-color="#4E44DB"/>
<stop offset="1" stop-color="#4E44DB" stop-opacity="0"/>
</radialGradient>
<linearGradient id="paint4_linear_74_608" x1="14.212" y1="8.616" x2="16.486" y2="12.54" gradientUnits="userSpaceOnUse">
<stop stop-color="#FDFDFD"/>
<stop offset="1" stop-color="#F9DCFA"/>
</linearGradient>
<linearGradient id="paint5_linear_74_608" x1="8.212" y1="8.616" x2="10.486" y2="12.54" gradientUnits="userSpaceOnUse">
<stop stop-color="#FDFDFD"/>
<stop offset="1" stop-color="#F9DCFA"/>
</linearGradient>
<clipPath id="clip0_74_608">
<rect width="32" height="32" fill="white"/>
</clipPath>
</defs>
</svg>
