<svg width="30" height="30" viewBox="0 0 30 30" fill="none" xmlns="http://www.w3.org/2000/svg">
<path d="M27.3867 12.0795C28.5478 12.0797 29.4998 13.0317 29.5 14.1927V20.7269C29.5 21.8882 28.5479 22.841 27.3867 22.8412H23.2588L20.0459 26.0541V22.8412H16.9316C15.7704 22.8411 14.8184 21.8882 14.8184 20.7269V18.5902C17.7374 18.3348 20.0459 15.8687 20.0459 12.8861V12.0795H27.3867ZM3.86328 4.23865H14.3184C15.4795 4.23875 16.4314 5.19079 16.4316 6.35193V12.8861C16.4316 14.0474 15.4796 15.0003 14.3184 15.0004H11.2041V18.2133L7.99121 15.0004H3.86328C2.70208 15.0002 1.75 14.0473 1.75 12.8861V6.35193C1.75019 5.19085 2.7022 4.23884 3.86328 4.23865Z" stroke="white"/>
</svg>
